<svg xmlns="http://www.w3.org/2000/svg" viewBox="-8 -8 196 196" role="img" aria-labelledby="title desc">
  <title id="title">TradeWind icon</title>
  <desc id="desc">The extracted TradeWind crest icon in the black and signal-orange theme.</desc>
  <defs>
    <linearGradient id="tw-body" x1="0" x2="1" y1="0" y2="1">
      <stop offset="0" stop-color="#ffb071" />
      <stop offset=".48" stop-color="#ff5a1f" />
      <stop offset="1" stop-color="#6e1b08" />
    </linearGradient>
    <linearGradient id="tw-gloss" x1="0" x2="1" y1="0" y2="1">
      <stop offset="0" stop-color="#ffd1ad" />
      <stop offset=".5" stop-color="#ff8a48" />
      <stop offset="1" stop-color="#ff5a1f" />
    </linearGradient>
    <linearGradient id="tw-core" x1="0.5" x2="0.5" y1="0" y2="1">
      <stop offset="0" stop-color="#4a382f" />
      <stop offset=".48" stop-color="#171614" />
      <stop offset="1" stop-color="#0b0b0a" />
    </linearGradient>
    <linearGradient id="tw-left" x1="0" x2="1" y1="0" y2="1">
      <stop offset="0" stop-color="#ff9a5c" />
      <stop offset="1" stop-color="#c93812" />
    </linearGradient>
    <linearGradient id="tw-right" x1="0" x2="1" y1="0" y2="1">
      <stop offset="0" stop-color="#ffc092" />
      <stop offset="1" stop-color="#ff5a1f" />
    </linearGradient>
    <filter id="tw-soft-glow" x="-16%" y="-16%" width="132%" height="132%">
      <feDropShadow dx="0" dy="2" stdDeviation="1.2" flood-color="#ff5a1f" flood-opacity=".08" />
    </filter>
  </defs>
  <g filter="url(#tw-soft-glow)" transform="translate(-39 -42)">
    <path d="M0 0 C5.80499218 5.46352205 8.21715148 11.07202919 8.5 19.0625 C8.31301325 24.68648599 7.02707372 28.28132627 4 33 C3.01 33.495 3.01 33.495 2 34 C1.67 32.68 1.34 31.36 1 30 C0.2575 31.7634375 0.2575 31.7634375 -0.5 33.5625 C-2.95345572 38.50458643 -6.52800851 41.83195675 -11 45 C-11.99 45.33 -12.98 45.66 -14 46 C-14 43.69 -14 41.38 -14 39 C-14.474375 39.99 -14.94875 40.98 -15.4375 42 C-19.56384766 49.21746322 -26.91831747 54.11505363 -33.56640625 58.87109375 C-34.03949219 59.24363281 -34.51257813 59.61617187 -35 60 C-35 60.33 -35 60.66 -35 61 C-34.20078125 60.66226563 -33.4015625 60.32453125 -32.578125 59.9765625 C-25.08499033 56.93357588 -18.02845881 54.96920133 -10 54 C-11.05273082 59.89332485 -13.28073529 64.20680764 -18 68 C-21.10427619 69.09724994 -24.28318617 69.75299574 -27.5 70.4375 C-39.17374158 73.15749332 -50.28130756 76.26175893 -59 85 C-60.23491623 87.10717307 -60.23491623 87.10717307 -61 89 C-49.25095251 84.89229058 -49.25095251 84.89229058 -39.515625 77.3203125 C-38 76 -38 76 -35 76 C-34.44366301 79.47538911 -34.23649216 82.54603595 -35 86 C-37.03902466 87.99460147 -39.12911226 89.18980467 -41.61328125 90.58203125 C-47.52945657 94.09687845 -51.90325765 100.50305186 -54 107 C-54.25172174 109.00571881 -54.50202301 111.01170519 -54.72998047 113.02026367 C-55.8462157 121.97941389 -55.8462157 121.97941389 -59.50390625 125.21484375 C-66.36769237 128.3793735 -71.952516 128.4233043 -79 126 C-80.08539063 125.64035156 -81.17078125 125.28070313 -82.2890625 124.91015625 C-83.18367188 124.60980469 -84.07828125 124.30945313 -85 124 C-85.09796875 123.09378906 -85.1959375 122.18757813 -85.296875 121.25390625 C-86.85466706 108.56327265 -90.25353093 98.70890497 -100.25 90.28515625 C-102.09587395 88.82675588 -102.09587395 88.82675588 -104.9375 87.75 C-107 86 -107 86 -107.3046875 83.59765625 C-107.31184685 81.04534776 -107.21466494 78.54258696 -107 76 C-103.58811436 77.06621426 -101.21802485 78.57243291 -98.5 80.8125 C-93.27127085 84.90498609 -87.22024587 86.85704944 -81 89 C-84.16472351 81.50632826 -92.46145134 77.2246198 -99.625 74.12109375 C-104.76797079 72.41272267 -110.03217342 71.38246826 -115.36279297 70.4309082 C-120.46742569 69.48969899 -124.90645154 68.59846309 -128.328125 64.3515625 C-128.63234375 63.78179687 -128.9365625 63.21203125 -129.25 62.625 C-129.72179687 61.77808594 -129.72179687 61.77808594 -130.203125 60.9140625 C-131.14849758 58.64331464 -131.58439619 56.41881419 -132 54 C-123.15963272 55.20878491 -115.29583478 57.82699458 -107 61 C-107 60.67 -107 60.34 -107 60 C-108.30872169 58.92757528 -109.64859858 57.89311661 -111 56.875 C-124.25445621 46.6471519 -124.25445621 46.6471519 -128 39 C-128 41.31 -128 43.62 -128 46 C-134.56782159 42.7160892 -139.21618051 38.8108871 -142.375 32.0625 C-142.58125 31.381875 -142.7875 30.70125 -143 30 C-143.66 31.32 -144.32 32.64 -145 34 C-149.73125454 27.13204986 -150.7961396 22.2518794 -150 14 C-148.59165883 8.9313662 -146.97878105 4.55696186 -143 1 C-142.97421875 1.71285156 -142.9484375 2.42570312 -142.921875 3.16015625 C-142.42364798 11.57339883 -140.82145519 16.50458637 -134.75 22.375 C-124.72320718 30.63560546 -112.23304979 36.05366959 -100.4465332 41.28637695 C-90.34528165 45.90189732 -81.40127481 52.28819869 -76.81640625 62.68359375 C-72.46845746 74.67628766 -71.72951895 87.36780348 -71 100 C-70.96261719 99.11441406 -70.92523438 98.22882813 -70.88671875 97.31640625 C-70.01166707 80.82768732 -68.73704434 63.66709173 -57 51 C-48.63240505 44.01933966 -38.6410175 39.68882006 -28.87695312 35.05493164 C-18.17098641 29.95325624 -8.19457187 24.80749179 -1 15 C0.09506492 11.71480525 0.09960608 9.26336585 0.0625 5.8125 C0.05347656 4.72582031 0.04445312 3.63914062 0.03515625 2.51953125 C0.02355469 1.68808594 0.01195312 0.85664062 0 0 Z " fill="url(#tw-body)" transform="translate(199,93)"/>
    <path d="M0 0 C5.80499218 5.46352205 8.21715148 11.07202919 8.5 19.0625 C8.31301325 24.68648599 7.02707372 28.28132627 4 33 C3.01 33.495 3.01 33.495 2 34 C1.505 32.02 1.505 32.02 1 30 C0.505 31.175625 0.01 32.35125 -0.5 33.5625 C-2.95345572 38.50458643 -6.52800851 41.83195675 -11 45 C-11.99 45.33 -12.98 45.66 -14 46 C-14 43.69 -14 41.38 -14 39 C-14.474375 39.99 -14.94875 40.98 -15.4375 42 C-19.56384766 49.21746322 -26.91831747 54.11505363 -33.56640625 58.87109375 C-34.03949219 59.24363281 -34.51257813 59.61617187 -35 60 C-35 60.33 -35 60.66 -35 61 C-34.20078125 60.66226563 -33.4015625 60.32453125 -32.578125 59.9765625 C-25.08499033 56.93357588 -18.02845881 54.96920133 -10 54 C-11.05273082 59.89332485 -13.28073529 64.20680764 -18 68 C-21.10427619 69.09724994 -24.28318617 69.75299574 -27.5 70.4375 C-39.17374158 73.15749332 -50.28130756 76.26175893 -59 85 C-60.23491623 87.10717307 -60.23491623 87.10717307 -61 89 C-49.25095251 84.89229058 -49.25095251 84.89229058 -39.515625 77.3203125 C-38 76 -38 76 -35 76 C-34.44366301 79.47538911 -34.23649216 82.54603595 -35 86 C-37.03902466 87.99460147 -39.12911226 89.18980467 -41.61328125 90.58203125 C-47.53931175 94.10273349 -51.88599797 100.50067282 -54 107 C-54.28772365 109.02211374 -54.57379488 111.04459081 -54.83300781 113.07055664 C-56.05623851 122.20080782 -56.05623851 122.20080782 -59.26953125 124.921875 C-63.35601814 126.57322256 -66.58500924 127 -71 127 C-71.90325338 67.08419226 -71.90325338 67.08419226 -57 51 C-48.63240505 44.01933966 -38.6410175 39.68882006 -28.87695312 35.05493164 C-18.17098641 29.95325624 -8.19457187 24.80749179 -1 15 C0.09506492 11.71480525 0.09960608 9.26336585 0.0625 5.8125 C0.05347656 4.72582031 0.04445313 3.63914062 0.03515625 2.51953125 C0.02355469 1.68808594 0.01195312 0.85664062 0 0 Z " fill="url(#tw-gloss)" opacity=".9" transform="translate(199,93)"/>
    <path d="M0 0 C2.80427595 2.65612552 4.97824138 5.26934483 7.015625 8.546875 C7.54414063 9.39121094 8.07265625 10.23554687 8.6171875 11.10546875 C9.15601563 11.97816406 9.69484375 12.85085937 10.25 13.75 C10.80429688 14.63816406 11.35859375 15.52632812 11.9296875 16.44140625 C13.29128816 18.62466248 14.64785782 20.810878 16 23 C14 24 14 24 10.875 23.0625 C9.92625 22.711875 8.9775 22.36125 8 22 C8.03029297 22.72324463 8.06058594 23.44648926 8.09179688 24.19165039 C8.49140394 34.1257283 8.76842577 44.06073648 9 54 C9.03537872 55.45110168 9.03537872 55.45110168 9.07147217 56.93151855 C9.22094501 63.21742376 9.33012669 69.50242894 9.39697266 75.7897644 C9.42386623 77.87857305 9.46136549 79.96727359 9.50976562 82.05569458 C9.57612258 85.0258497 9.60300252 87.99405145 9.62109375 90.96484375 C9.64888412 91.84502167 9.6766745 92.72519958 9.70530701 93.63204956 C9.68259214 100.59434594 7.20909597 104.59289898 3 110 C2.34 110.99 1.68 111.98 1 113 C0.57847656 112.28972656 0.15695313 111.57945312 -0.27734375 110.84765625 C-1.09912109 109.46900391 -1.09912109 109.46900391 -1.9375 108.0625 C-2.48277344 107.14597656 -3.02804688 106.22945313 -3.58984375 105.28515625 C-4.80732173 103.11587323 -4.80732173 103.11587323 -6 102 C-6.09502416 99.50507612 -6.12557566 97.03793986 -6.11352539 94.54272461 C-6.11367142 93.76229294 -6.11381744 92.98186127 -6.1139679 92.17778015 C-6.11326858 89.5859402 -6.10547536 86.99417122 -6.09765625 84.40234375 C-6.09579213 82.6101536 -6.0943682 80.81796294 -6.09336853 79.02577209 C-6.08954284 74.29929203 -6.07971212 69.57284248 -6.06866455 64.84637451 C-6.05845153 60.0271445 -6.05387115 55.20790958 -6.04882812 50.38867188 C-6.03808989 40.92576781 -6.02101286 31.46288644 -6 22 C-8.64 22.66 -11.28 23.32 -14 24 C-9.65326066 15.78400405 -4.93181144 7.8733741 0 0 Z " fill="url(#tw-body)" transform="translate(127,42)"/>
    <path d="M0 0 C2.80427595 2.65612552 4.97824138 5.26934483 7.015625 8.546875 C7.54414063 9.39121094 8.07265625 10.23554687 8.6171875 11.10546875 C9.15601563 11.97816406 9.69484375 12.85085937 10.25 13.75 C10.80429688 14.63816406 11.35859375 15.52632812 11.9296875 16.44140625 C13.29128816 18.62466248 14.64785782 20.810878 16 23 C14 24 14 24 10.875 23.0625 C9.92625 22.711875 8.9775 22.36125 8 22 C8.03029297 22.72324463 8.06058594 23.44648926 8.09179688 24.19165039 C8.49140394 34.1257283 8.76842577 44.06073648 9 54 C9.03537872 55.45110168 9.03537872 55.45110168 9.07147217 56.93151855 C9.22094501 63.21742376 9.33012669 69.50242894 9.39697266 75.7897644 C9.42386623 77.87857305 9.46136549 79.96727359 9.50976562 82.05569458 C9.57612258 85.0258497 9.60300252 87.99405145 9.62109375 90.96484375 C9.64888412 91.84502167 9.6766745 92.72519958 9.70530701 93.63204956 C9.68259214 100.59434594 7.20909597 104.59289898 3 110 C2.34 110.99 1.68 111.98 1 113 C0.57847656 112.28972656 0.15695313 111.57945312 -0.27734375 110.84765625 C-1.09912109 109.46900391 -1.09912109 109.46900391 -1.9375 108.0625 C-2.48277344 107.14597656 -3.02804688 106.22945313 -3.58984375 105.28515625 C-4.80732173 103.11587323 -4.80732173 103.11587323 -6 102 C-6.09502416 99.50507612 -6.12557566 97.03793986 -6.11352539 94.54272461 C-6.11367142 93.76229294 -6.11381744 92.98186127 -6.1139679 92.17778015 C-6.11326858 89.5859402 -6.10547536 86.99417122 -6.09765625 84.40234375 C-6.09579213 82.6101536 -6.0943682 80.81796294 -6.09336853 79.02577209 C-6.08954284 74.29929203 -6.07971212 69.57284248 -6.06866455 64.84637451 C-6.05845153 60.0271445 -6.05387115 55.20790958 -6.04882812 50.38867188 C-6.03808989 40.92576781 -6.02101286 31.46288644 -6 22 C-8.64 22.66 -11.28 23.32 -14 24 C-9.65326066 15.78400405 -4.93181144 7.8733741 0 0 Z " fill="url(#tw-core)" stroke="#ff5a1f" stroke-width="1.25" stroke-linejoin="round" stroke-linecap="round" paint-order="stroke fill" transform="translate(127,42)"/>
    <path d="M0 0 C2.51931378 2.31018787 4.17917719 4.73258945 5.91796875 7.66796875 C6.44970703 8.56064453 6.98144531 9.45332031 7.52929688 10.37304688 C8.07650391 11.30181641 8.62371094 12.23058594 9.1875 13.1875 C9.74630859 14.12787109 10.30511719 15.06824219 10.88085938 16.03710938 C12.25791273 18.35573768 13.63078241 20.67673875 15 23 C12 24 12 24 9 23 C8.67 36.86 8.34 50.72 8 65 C-5.9811949 60.3396017 -20.89873366 53.0174463 -29.625 40.6875 C-32.13279015 33.96206278 -32.00032923 26.98533662 -29.5 20.25 C-29.005 19.1775 -28.51 18.105 -28 17 C-27 20 -27 20 -27.25 23.5625 C-27.29695081 29.94781042 -24.37295994 35.39371554 -20.1328125 40.05078125 C-15.96897048 43.83388285 -12.01598161 46.13372479 -7 49 C-7 40.09 -7 31.18 -7 22 C-9.31 22.66 -11.62 23.32 -14 24 C-10.09620294 15.48619133 -5.15261744 7.79066777 0 0 Z " fill="url(#tw-left)" transform="translate(92,64)"/>
    <path d="M0 0 C0.66 0 1.32 0 2 0 C3.296875 1.77246094 3.296875 1.77246094 4.75 4.234375 C5.2759375 5.11867188 5.801875 6.00296875 6.34375 6.9140625 C6.8903125 7.84992188 7.436875 8.78578125 8 9.75 C8.5465625 10.67039062 9.093125 11.59078125 9.65625 12.5390625 C11.8864222 16.31067725 14.08222902 20.05816648 16 24 C14.02 23.67 12.04 23.34 10 23 C9.67 31.58 9.34 40.16 9 49 C17.7472846 43.77296408 25.18150568 39.20497723 28.54296875 29.19921875 C29.38414495 25.15150765 29.22735592 21.10924778 29 17 C31 18 31 18 32.09765625 20.6640625 C33.7261857 26.68468652 34.2524188 33.35825797 32.1953125 39.33984375 C30.97507033 41.46474822 29.63749384 43.17794451 28 45 C27.47277344 45.61875 26.94554687 46.2375 26.40234375 46.875 C18.89499715 54.52108606 7.83705395 59.91422156 -2 64 C-2.99 64 -3.98 64 -5 64 C-5 50.14 -5 36.28 -5 22 C-7.64 22.66 -10.28 23.32 -13 24 C-10.99889105 18.747089 -8.30391858 14.04545195 -5.5 9.1875 C-5.00113281 8.30384766 -4.50226563 7.42019531 -3.98828125 6.50976562 C-3.50746094 5.67509766 -3.02664062 4.84042969 -2.53125 3.98046875 C-2.09361328 3.21629639 -1.65597656 2.45212402 -1.20507812 1.66479492 C-0.80740234 1.1154126 -0.40972656 0.56603027 0 0 Z " fill="url(#tw-gloss)" opacity=".9" transform="translate(162,64)"/>
  </g>
</svg>
